<svg width="200" height="200" viewBox="0 0 200 200" fill="none" xmlns="http://www.w3.org/2000/svg">
<circle cx="100" cy="100" r="100" fill="white"/>
<path d="M150 67.6862C150 62.8023 146.041 58.8431 141.157 58.8431C141.157 53.9591 137.198 50 132.314 50C128.708 50 125.612 52.1612 124.235 55.2562C122.859 52.1612 119.763 50 116.157 50C112.551 50 109.455 52.1612 108.078 55.2562C106.702 52.1612 103.606 50 100 50C96.3942 50 93.298 52.1612 91.9215 55.2562C90.5451 52.1612 87.4489 50 83.8431 50C80.2373 50 77.1411 52.1612 75.7646 55.2562C74.3882 52.1612 71.292 50 67.6862 50C62.8023 50 58.8431 53.9591 58.8431 58.8431C53.9591 58.8431 50 62.8023 50 67.6862C50 71.2919 52.1612 74.3881 55.2563 75.7646C52.1612 77.141 50 80.2373 50 83.8431C50 87.4488 52.1612 90.545 55.2563 91.9215C52.1612 93.298 50 96.3942 50 100C50 103.606 52.1612 106.702 55.2563 108.078C52.1612 109.455 50 112.551 50 116.157C50 119.763 52.1612 122.859 55.2563 124.235C52.1612 125.612 50 128.708 50 132.314C50 137.198 53.9591 141.157 58.8431 141.157C58.8431 146.041 62.8023 150 67.6862 150C71.292 150 74.3882 147.839 75.7646 144.744C77.1411 147.839 80.2373 150 83.8431 150C87.4489 150 90.5451 147.839 91.9215 144.744C93.298 147.839 96.3942 150 100 150C103.606 150 106.702 147.839 108.078 144.744C109.455 147.839 112.551 150 116.157 150C119.763 150 122.859 147.839 124.235 144.744C125.612 147.839 128.708 150 132.314 150C137.198 150 141.157 146.041 141.157 141.157C146.041 141.157 150 137.198 150 132.314C150 128.708 147.839 125.612 144.744 124.235C147.839 122.859 150 119.763 150 116.157C150 112.551 147.839 109.455 144.744 108.078C147.839 106.702 150 103.606 150 100C150 96.3942 147.839 93.298 144.744 91.9215C147.839 90.545 150 87.4488 150 83.8431C150 80.2373 147.839 77.141 144.744 75.7646C147.839 74.3881 150 71.2919 150 67.6862Z" fill="#4D1025"/>
</svg>
